<?xml version="1.0" encoding="UTF-8" standalone="no"?>
<!DOCTYPE svg PUBLIC "-//W3C//DTD SVG 1.1//EN" "http://www.w3.org/Graphics/SVG/1.1/DTD/svg11.dtd">
<svg version="1.1" xmlns="http://www.w3.org/2000/svg" xmlns:xlink="http://www.w3.org/1999/xlink" preserveAspectRatio="xMidYMid meet" viewBox="0 0 372 430" width="372" height="430"><defs><path d="M0 107.67L0 323.02L186 430.69L372 323.02L372 107.67L186 0L0 107.67Z" id="b44GmnNCDz"></path><path d="M186 330.22C122.61 330.22 71.12 278.74 71.12 215.34C71.12 151.95 122.61 100.47 186 100.47C249.39 100.47 300.88 151.95 300.88 215.34C300.88 278.74 249.39 330.22 186 330.22Z" id="c3TKp0Tc7F"></path><path d="M186 311.08C133.16 311.08 90.27 268.19 90.27 215.34C90.27 162.5 133.16 119.61 186 119.61C238.84 119.61 281.73 162.5 281.73 215.34C281.73 268.19 238.84 311.08 186 311.08Z" id="d38Th23lvy"></path><path d="M277.66 88.42L111.22 352.89L94.34 342.27L260.78 77.8L277.66 88.42Z" id="c35Zm1ZxRd"></path></defs><g><g><g><g><filter id="shadow1257066" x="-9" y="-9" width="391" height="449.69" filterUnits="userSpaceOnUse" primitiveUnits="userSpaceOnUse"><feFlood></feFlood><feComposite in2="SourceAlpha" operator="in"></feComposite><feGaussianBlur stdDeviation="1"></feGaussianBlur><feOffset dx="1" dy="1" result="afterOffset"></feOffset><feFlood flood-color="#000000" flood-opacity="0.5"></feFlood><feComposite in2="afterOffset" operator="in"></feComposite><feMorphology operator="dilate" radius="1"></feMorphology><feComposite in2="SourceAlpha" operator="out"></feComposite></filter><path d="M0 107.67L0 323.02L186 430.69L372 323.02L372 107.67L186 0L0 107.67Z" id="b20ACvoW7X" fill="white" fill-opacity="1" filter="url(#shadow1257066)"></path></g><use xlink:href="#b44GmnNCDz" opacity="1" fill="#5f616c" fill-opacity="1"></use><g><use xlink:href="#b44GmnNCDz" opacity="1" fill-opacity="0" stroke="#000000" stroke-width="0" stroke-opacity="0"></use></g><g><filter id="shadow13699367" x="-9" y="-9" width="391" height="449.69" filterUnits="userSpaceOnUse" primitiveUnits="userSpaceOnUse"><feFlood></feFlood><feComposite in2="SourceAlpha" operator="out"></feComposite><feGaussianBlur stdDeviation="1"></feGaussianBlur><feOffset dx="1" dy="1" result="afterOffset"></feOffset><feFlood flood-color="#000000" flood-opacity="0.5"></feFlood><feComposite in2="afterOffset" operator="in"></feComposite><feMorphology operator="dilate" radius="1"></feMorphology><feComposite in2="SourceAlpha" operator="in"></feComposite></filter><path d="M0 107.67L0 323.02L186 430.69L372 323.02L372 107.67L186 0L0 107.67Z" id="d1fkVkPRUA" fill="white" fill-opacity="1" filter="url(#shadow13699367)"></path></g></g><g><g><filter id="shadow10987838" x="62.12" y="91.47" width="248.76" height="248.76" filterUnits="userSpaceOnUse" primitiveUnits="userSpaceOnUse"><feFlood></feFlood><feComposite in2="SourceAlpha" operator="in"></feComposite><feGaussianBlur stdDeviation="1"></feGaussianBlur><feOffset dx="1" dy="1" result="afterOffset"></feOffset><feFlood flood-color="#000000" flood-opacity="0.5"></feFlood><feComposite in2="afterOffset" operator="in"></feComposite><feMorphology operator="dilate" radius="1"></feMorphology><feComposite in2="SourceAlpha" operator="out"></feComposite></filter><path d="M186 330.22C122.61 330.22 71.12 278.74 71.12 215.34C71.12 151.95 122.61 100.47 186 100.47C249.39 100.47 300.88 151.95 300.88 215.34C300.88 278.74 249.39 330.22 186 330.22Z" id="bCUvpc144" fill="white" fill-opacity="1" filter="url(#shadow10987838)"></path></g><use xlink:href="#c3TKp0Tc7F" opacity="1" fill="#21f211" fill-opacity="1"></use><g><use xlink:href="#c3TKp0Tc7F" opacity="1" fill-opacity="0" stroke="#000000" stroke-width="0" stroke-opacity="0"></use></g><g><filter id="shadow13222825" x="62.12" y="91.47" width="248.76" height="248.76" filterUnits="userSpaceOnUse" primitiveUnits="userSpaceOnUse"><feFlood></feFlood><feComposite in2="SourceAlpha" operator="out"></feComposite><feGaussianBlur stdDeviation="1"></feGaussianBlur><feOffset dx="1" dy="1" result="afterOffset"></feOffset><feFlood flood-color="#000000" flood-opacity="0.5"></feFlood><feComposite in2="afterOffset" operator="in"></feComposite><feMorphology operator="dilate" radius="1"></feMorphology><feComposite in2="SourceAlpha" operator="in"></feComposite></filter><path d="M186 330.22C122.61 330.22 71.12 278.74 71.12 215.34C71.12 151.95 122.61 100.47 186 100.47C249.39 100.47 300.88 151.95 300.88 215.34C300.88 278.74 249.39 330.22 186 330.22Z" id="a1ZEeCR4KA" fill="white" fill-opacity="1" filter="url(#shadow13222825)"></path></g></g><g><g><filter id="shadow1108467" x="81.27" y="110.61" width="210.47" height="210.46" filterUnits="userSpaceOnUse" primitiveUnits="userSpaceOnUse"><feFlood></feFlood><feComposite in2="SourceAlpha" operator="in"></feComposite><feGaussianBlur stdDeviation="1"></feGaussianBlur><feOffset dx="1" dy="1" result="afterOffset"></feOffset><feFlood flood-color="#000000" flood-opacity="0.5"></feFlood><feComposite in2="afterOffset" operator="in"></feComposite><feMorphology operator="dilate" radius="1"></feMorphology><feComposite in2="SourceAlpha" operator="out"></feComposite></filter><path d="M186 311.08C133.16 311.08 90.27 268.19 90.27 215.34C90.27 162.5 133.16 119.61 186 119.61C238.84 119.61 281.73 162.5 281.73 215.34C281.73 268.19 238.84 311.08 186 311.08Z" id="a6fbTS27mp" fill="white" fill-opacity="1" filter="url(#shadow1108467)"></path></g><use xlink:href="#d38Th23lvy" opacity="1" fill="#5f616c" fill-opacity="1"></use><g><use xlink:href="#d38Th23lvy" opacity="1" fill-opacity="0" stroke="#000000" stroke-width="0" stroke-opacity="0"></use></g><g><filter id="shadow478048" x="81.27" y="110.61" width="210.47" height="210.46" filterUnits="userSpaceOnUse" primitiveUnits="userSpaceOnUse"><feFlood></feFlood><feComposite in2="SourceAlpha" operator="out"></feComposite><feGaussianBlur stdDeviation="1"></feGaussianBlur><feOffset dx="1" dy="1" result="afterOffset"></feOffset><feFlood flood-color="#000000" flood-opacity="0.5"></feFlood><feComposite in2="afterOffset" operator="in"></feComposite><feMorphology operator="dilate" radius="1"></feMorphology><feComposite in2="SourceAlpha" operator="in"></feComposite></filter><path d="M186 311.08C133.16 311.08 90.27 268.19 90.27 215.34C90.27 162.5 133.16 119.61 186 119.61C238.84 119.61 281.73 162.5 281.73 215.34C281.73 268.19 238.84 311.08 186 311.08Z" id="b63uHWpVb" fill="white" fill-opacity="1" filter="url(#shadow478048)"></path></g></g><g><g><filter id="shadow15079412" x="85.34" y="68.8" width="202.32" height="294.08" filterUnits="userSpaceOnUse" primitiveUnits="userSpaceOnUse"><feFlood></feFlood><feComposite in2="SourceAlpha" operator="in"></feComposite><feGaussianBlur stdDeviation="1"></feGaussianBlur><feOffset dx="1" dy="1" result="afterOffset"></feOffset><feFlood flood-color="#000000" flood-opacity="0.5"></feFlood><feComposite in2="afterOffset" operator="in"></feComposite><feMorphology operator="dilate" radius="1"></feMorphology><feComposite in2="SourceAlpha" operator="out"></feComposite></filter><path d="M277.66 88.42L111.22 352.89L94.34 342.27L260.78 77.8L277.66 88.42Z" id="b343TdVV2J" fill="white" fill-opacity="1" filter="url(#shadow15079412)"></path></g><use xlink:href="#c35Zm1ZxRd" opacity="1" fill="#3ce021" fill-opacity="1"></use><g><use xlink:href="#c35Zm1ZxRd" opacity="1" fill-opacity="0" stroke="#000000" stroke-width="0" stroke-opacity="0"></use></g><g><filter id="shadow4469839" x="85.34" y="68.8" width="202.32" height="294.08" filterUnits="userSpaceOnUse" primitiveUnits="userSpaceOnUse"><feFlood></feFlood><feComposite in2="SourceAlpha" operator="out"></feComposite><feGaussianBlur stdDeviation="1"></feGaussianBlur><feOffset dx="1" dy="1" result="afterOffset"></feOffset><feFlood flood-color="#000000" flood-opacity="0.5"></feFlood><feComposite in2="afterOffset" operator="in"></feComposite><feMorphology operator="dilate" radius="1"></feMorphology><feComposite in2="SourceAlpha" operator="in"></feComposite></filter><path d="M277.66 88.42L111.22 352.89L94.34 342.27L260.78 77.8L277.66 88.42Z" id="e1HxMvjart" fill="white" fill-opacity="1" filter="url(#shadow4469839)"></path></g></g></g></g></svg>