<?xml version="1.0" encoding="UTF-8" standalone="no"?>
<!DOCTYPE svg PUBLIC "-//W3C//DTD SVG 1.1//EN" "http://www.w3.org/Graphics/SVG/1.1/DTD/svg11.dtd">
<svg version="1.1" xmlns="http://www.w3.org/2000/svg" xmlns:xlink="http://www.w3.org/1999/xlink" preserveAspectRatio="xMidYMid meet" viewBox="0 0 26 30.07" width="26" height="30.07"><defs><path d="M0 7.52L0 22.57L13 30.1L26 22.57L26 7.52L13 0L0 7.52Z" id="axNaRGWbh"></path><path d="M13 23.08C8.57 23.08 4.97 19.48 4.97 15.05C4.97 10.62 8.57 7.02 13 7.02C17.43 7.02 21.03 10.62 21.03 15.05C21.03 19.48 17.43 23.08 13 23.08Z" id="c1WJD6bRxY"></path><path d="M13 21.74C9.31 21.74 6.31 18.74 6.31 15.05C6.31 11.36 9.31 8.36 13 8.36C16.69 8.36 19.69 11.36 19.69 15.05C19.69 18.74 16.69 21.74 13 21.74Z" id="n1TCvSixdp"></path><path d="M19.41 6.18L7.77 24.66L6.59 23.92L18.23 5.44L19.41 6.18Z" id="h52SiI4z0m"></path></defs><g><g><g><g><filter id="shadow7776751" x="-9" y="-9" width="45" height="49.1" filterUnits="userSpaceOnUse" primitiveUnits="userSpaceOnUse"><feFlood></feFlood><feComposite in2="SourceAlpha" operator="in"></feComposite><feGaussianBlur stdDeviation="1"></feGaussianBlur><feOffset dx="1" dy="1" result="afterOffset"></feOffset><feFlood flood-color="#000000" flood-opacity="0.5"></feFlood><feComposite in2="afterOffset" operator="in"></feComposite><feMorphology operator="dilate" radius="1"></feMorphology><feComposite in2="SourceAlpha" operator="out"></feComposite></filter><path d="M0 7.52L0 22.57L13 30.1L26 22.57L26 7.52L13 0L0 7.52Z" id="d8Td5EXH6Z" fill="white" fill-opacity="1" filter="url(#shadow7776751)"></path></g><use xlink:href="#axNaRGWbh" opacity="1" fill="#d5d5d5" fill-opacity="1"></use><g><use xlink:href="#axNaRGWbh" opacity="1" fill-opacity="0" stroke="#000000" stroke-width="0" stroke-opacity="0"></use></g><g><filter id="shadow6295323" x="-9" y="-9" width="45" height="49.1" filterUnits="userSpaceOnUse" primitiveUnits="userSpaceOnUse"><feFlood></feFlood><feComposite in2="SourceAlpha" operator="out"></feComposite><feGaussianBlur stdDeviation="1"></feGaussianBlur><feOffset dx="1" dy="1" result="afterOffset"></feOffset><feFlood flood-color="#000000" flood-opacity="0.5"></feFlood><feComposite in2="afterOffset" operator="in"></feComposite><feMorphology operator="dilate" radius="1"></feMorphology><feComposite in2="SourceAlpha" operator="in"></feComposite></filter><path d="M0 7.52L0 22.57L13 30.1L26 22.57L26 7.52L13 0L0 7.52Z" id="b2Ug3GhFfc" fill="white" fill-opacity="1" filter="url(#shadow6295323)"></path></g></g><g><g><filter id="shadow15079380" x="-4.03" y="-1.98" width="35.06" height="35.06" filterUnits="userSpaceOnUse" primitiveUnits="userSpaceOnUse"><feFlood></feFlood><feComposite in2="SourceAlpha" operator="in"></feComposite><feGaussianBlur stdDeviation="1"></feGaussianBlur><feOffset dx="1" dy="1" result="afterOffset"></feOffset><feFlood flood-color="#000000" flood-opacity="0.5"></feFlood><feComposite in2="afterOffset" operator="in"></feComposite><feMorphology operator="dilate" radius="1"></feMorphology><feComposite in2="SourceAlpha" operator="out"></feComposite></filter><path d="M13 23.08C8.57 23.08 4.97 19.48 4.97 15.05C4.97 10.62 8.57 7.02 13 7.02C17.43 7.02 21.03 10.62 21.03 15.05C21.03 19.48 17.43 23.08 13 23.08Z" id="b2Ni14Hkw" fill="white" fill-opacity="1" filter="url(#shadow15079380)"></path></g><use xlink:href="#c1WJD6bRxY" opacity="1" fill="#2e8120" fill-opacity="1"></use><g><use xlink:href="#c1WJD6bRxY" opacity="1" fill-opacity="0" stroke="#000000" stroke-width="0" stroke-opacity="0"></use></g><g><filter id="shadow6997497" x="-4.03" y="-1.98" width="35.06" height="35.06" filterUnits="userSpaceOnUse" primitiveUnits="userSpaceOnUse"><feFlood></feFlood><feComposite in2="SourceAlpha" operator="out"></feComposite><feGaussianBlur stdDeviation="1"></feGaussianBlur><feOffset dx="1" dy="1" result="afterOffset"></feOffset><feFlood flood-color="#000000" flood-opacity="0.5"></feFlood><feComposite in2="afterOffset" operator="in"></feComposite><feMorphology operator="dilate" radius="1"></feMorphology><feComposite in2="SourceAlpha" operator="in"></feComposite></filter><path d="M13 23.08C8.57 23.08 4.97 19.48 4.97 15.05C4.97 10.62 8.57 7.02 13 7.02C17.43 7.02 21.03 10.62 21.03 15.05C21.03 19.48 17.43 23.08 13 23.08Z" id="bJYrFf7Wm" fill="white" fill-opacity="1" filter="url(#shadow6997497)"></path></g></g><g><g><filter id="shadow13165950" x="-2.69" y="-0.64" width="32.38" height="32.38" filterUnits="userSpaceOnUse" primitiveUnits="userSpaceOnUse"><feFlood></feFlood><feComposite in2="SourceAlpha" operator="in"></feComposite><feGaussianBlur stdDeviation="1"></feGaussianBlur><feOffset dx="1" dy="1" result="afterOffset"></feOffset><feFlood flood-color="#000000" flood-opacity="0.5"></feFlood><feComposite in2="afterOffset" operator="in"></feComposite><feMorphology operator="dilate" radius="1"></feMorphology><feComposite in2="SourceAlpha" operator="out"></feComposite></filter><path d="M13 21.74C9.31 21.74 6.31 18.74 6.31 15.05C6.31 11.36 9.31 8.36 13 8.36C16.69 8.36 19.69 11.36 19.69 15.05C19.69 18.74 16.69 21.74 13 21.74Z" id="b9gVxiwA" fill="white" fill-opacity="1" filter="url(#shadow13165950)"></path></g><use xlink:href="#n1TCvSixdp" opacity="1" fill="#d5d5d5" fill-opacity="1"></use><g><use xlink:href="#n1TCvSixdp" opacity="1" fill-opacity="0" stroke="#000000" stroke-width="0" stroke-opacity="0"></use></g><g><filter id="shadow1360181" x="-2.69" y="-0.64" width="32.38" height="32.38" filterUnits="userSpaceOnUse" primitiveUnits="userSpaceOnUse"><feFlood></feFlood><feComposite in2="SourceAlpha" operator="out"></feComposite><feGaussianBlur stdDeviation="1"></feGaussianBlur><feOffset dx="1" dy="1" result="afterOffset"></feOffset><feFlood flood-color="#000000" flood-opacity="0.5"></feFlood><feComposite in2="afterOffset" operator="in"></feComposite><feMorphology operator="dilate" radius="1"></feMorphology><feComposite in2="SourceAlpha" operator="in"></feComposite></filter><path d="M13 21.74C9.31 21.74 6.31 18.74 6.31 15.05C6.31 11.36 9.31 8.36 13 8.36C16.69 8.36 19.69 11.36 19.69 15.05C19.69 18.74 16.69 21.74 13 21.74Z" id="b6T5H5Ell" fill="white" fill-opacity="1" filter="url(#shadow1360181)"></path></g></g><g><g><filter id="shadow3387564" x="-2.41" y="-3.56" width="31.81" height="38.22" filterUnits="userSpaceOnUse" primitiveUnits="userSpaceOnUse"><feFlood></feFlood><feComposite in2="SourceAlpha" operator="in"></feComposite><feGaussianBlur stdDeviation="1"></feGaussianBlur><feOffset dx="1" dy="1" result="afterOffset"></feOffset><feFlood flood-color="#000000" flood-opacity="0.5"></feFlood><feComposite in2="afterOffset" operator="in"></feComposite><feMorphology operator="dilate" radius="1"></feMorphology><feComposite in2="SourceAlpha" operator="out"></feComposite></filter><path d="M19.41 6.18L7.77 24.66L6.59 23.92L18.23 5.44L19.41 6.18Z" id="c1YmyjHGQ0" fill="white" fill-opacity="1" filter="url(#shadow3387564)"></path></g><use xlink:href="#h52SiI4z0m" opacity="1" fill="#2e8120" fill-opacity="1"></use><g><use xlink:href="#h52SiI4z0m" opacity="1" fill-opacity="0" stroke="#000000" stroke-width="0" stroke-opacity="0"></use></g><g><filter id="shadow8822574" x="-2.41" y="-3.56" width="31.81" height="38.22" filterUnits="userSpaceOnUse" primitiveUnits="userSpaceOnUse"><feFlood></feFlood><feComposite in2="SourceAlpha" operator="out"></feComposite><feGaussianBlur stdDeviation="1"></feGaussianBlur><feOffset dx="1" dy="1" result="afterOffset"></feOffset><feFlood flood-color="#000000" flood-opacity="0.5"></feFlood><feComposite in2="afterOffset" operator="in"></feComposite><feMorphology operator="dilate" radius="1"></feMorphology><feComposite in2="SourceAlpha" operator="in"></feComposite></filter><path d="M19.41 6.18L7.77 24.66L6.59 23.92L18.23 5.44L19.41 6.18Z" id="a4g9BkJyVl" fill="white" fill-opacity="1" filter="url(#shadow8822574)"></path></g></g></g></g></svg>