<?xml version="1.0" encoding="UTF-8" standalone="no"?>
<!DOCTYPE svg PUBLIC "-//W3C//DTD SVG 1.1//EN" "http://www.w3.org/Graphics/SVG/1.1/DTD/svg11.dtd">
<svg version="1.1" xmlns="http://www.w3.org/2000/svg" xmlns:xlink="http://www.w3.org/1999/xlink" preserveAspectRatio="xMidYMid meet" viewBox="0 0 180 180" width="180" height="180"><defs><path d="M92.94 28.14L39.51 59.07L39.51 120.93L92.94 151.86L146.37 120.93L146.37 59.07L92.94 28.14Z" id="c1EDLLRVeq"></path><path d="M125.94 90C125.94 108.21 111.15 123 92.94 123C74.73 123 59.94 108.21 59.94 90C59.94 71.79 74.73 57 92.94 57C111.15 57 125.94 71.79 125.94 90Z" id="ewCfzsz7f"></path><path d="M120.44 90C120.44 105.18 108.12 117.5 92.94 117.5C77.76 117.5 65.44 105.18 65.44 90C65.44 74.82 77.76 62.5 92.94 62.5C108.12 62.5 120.44 74.82 120.44 90Z" id="a1GoQqTnjv"></path><path d="M114.42 50.49L119.27 53.54L71.46 129.51L66.61 126.46L114.42 50.49Z" id="blmPOLPt2"></path></defs><g><g><g><use xlink:href="#c1EDLLRVeq" opacity="1" fill="#5f616c" fill-opacity="1"></use></g><g><use xlink:href="#ewCfzsz7f" opacity="1" fill="#21f211" fill-opacity="1"></use></g><g><use xlink:href="#a1GoQqTnjv" opacity="1" fill="#5f616c" fill-opacity="1"></use></g><g><use xlink:href="#blmPOLPt2" opacity="1" fill="#3ce021" fill-opacity="1"></use></g></g></g></svg>
